<?xml version="1.0" encoding="UTF-8" standalone="no"?>
<svg
   width="90"
   height="90"
   viewBox="0 0 90 90"
   version="1.1"
   id="svg3"
   sodipodi:docname="icon.svg"
   inkscape:version="1.3.2 (091e20e, 2023-11-25, custom)"
   xmlns:inkscape="http://www.inkscape.org/namespaces/inkscape"
   xmlns:sodipodi="http://sodipodi.sourceforge.net/DTD/sodipodi-0.dtd"
   xmlns="http://www.w3.org/2000/svg"
   xmlns:svg="http://www.w3.org/2000/svg">
  <defs
     id="defs3" />
  <sodipodi:namedview
     id="namedview3"
     pagecolor="#ffffff"
     bordercolor="#000000"
     borderopacity="0.25"
     inkscape:showpageshadow="2"
     inkscape:pageopacity="0.0"
     inkscape:pagecheckerboard="0"
     inkscape:deskcolor="#d1d1d1"
     inkscape:zoom="1.3934783"
     inkscape:cx="21.170047"
     inkscape:cy="72.121685"
     inkscape:window-width="1600"
     inkscape:window-height="837"
     inkscape:window-x="-8"
     inkscape:window-y="-8"
     inkscape:window-maximized="1"
     inkscape:current-layer="a01058ea-7040-4012-9597-02cf5c84631c" />
  <g
     id="a01058ea-7040-4012-9597-02cf5c84631c"
     data-name="Layer 3"
     style="display:inline"
     transform="translate(-44.73,-47.713165)">
    <g
       id="g3"
       style="display:inline"
       transform="matrix(0.24288876,0,0,0.24686369,33.865586,35.934517)">
      <path
         d="m 399.67,174.88 h -41 a 142.08,142.08 0 0 0 -16.61,-28.77 l 20.49,-35.49 a 15.58,15.58 0 0 0 -5.7,-21.28 L 288.38,49.8 A 15.58,15.58 0 0 0 267.1,55.5 L 246.61,91 a 139.91,139.91 0 0 0 -33.23,0 L 192.9,55.5 a 15.58,15.58 0 0 0 -21.28,-5.7 l -68.49,39.54 a 15.58,15.58 0 0 0 -5.7,21.28 l 20.48,35.47 a 139.74,139.74 0 0 0 -16.6,28.79 h -41 a 15.58,15.58 0 0 0 -15.58,15.58 v 79.08 a 15.58,15.58 0 0 0 15.58,15.58 h 41 a 139.45,139.45 0 0 0 7.46,14.88 141.92,141.92 0 0 0 9.15,13.9 l -20.49,35.48 a 15.58,15.58 0 0 0 5.7,21.28 l 68.49,39.54 a 15.58,15.58 0 0 0 21.28,-5.7 L 213.39,369 a 139.91,139.91 0 0 0 33.23,0 l 20.48,35.5 a 15.58,15.58 0 0 0 21.28,5.7 l 68.49,-39.54 a 15.58,15.58 0 0 0 5.7,-21.28 l -20.48,-35.47 a 139.74,139.74 0 0 0 16.6,-28.79 h 41 a 15.58,15.58 0 0 0 15.58,-15.58 v -79.08 a 15.58,15.58 0 0 0 -15.6,-15.58 z"
         style="fill:#ff9166"
         id="path1" />
      <path
         d="M 44.75,231.13 V 191.59 A 15.58,15.58 0 0 1 60.33,176 h 41 a 140,140 0 0 1 16.6,-28.79 l -20.5,-35.46 a 15.58,15.58 0 0 1 5.7,-21.28 l 68.49,-39.54 a 15.58,15.58 0 0 1 21.28,5.7 l 20.48,35.47 a 140.44,140.44 0 0 1 33.23,0 L 267.1,56.63 a 15.58,15.58 0 0 1 21.28,-5.7 l 68.49,39.54 a 15.58,15.58 0 0 1 5.7,21.28 l -20.49,35.5 A 141.64,141.64 0 0 1 358.69,176 h 41 a 15.58,15.58 0 0 1 15.58,15.58 v 39.54 z"
         style="fill:#ffb570"
         id="path2" />
      <circle
         cx="229.17999"
         cy="230"
         r="89.389999"
         style="fill:#ffffff"
         id="circle2" />
      <rect
         x="83.610001"
         y="204.55"
         width="291.38"
         height="50.900002"
         rx="25.450001"
         style="fill:#ffffff"
         id="rect2" />
      <path
         d="m 229.19,230 -38.68,-38.68 a 54.7,54.7 0 1 0 77.83,0.48 z"
         style="fill:#ff9166"
         id="path3" />
    </g>
  </g>
</svg>
