<?xml version="1.0" encoding="UTF-8" standalone="no"?>
<!-- Created with Inkscape (http://www.inkscape.org/) -->

<svg
   width="100"
   height="100"
   viewBox="0 0 100 100"
   version="1.1"
   id="svg1"
   xml:space="preserve"
   xmlns="http://www.w3.org/2000/svg"
   xmlns:svg="http://www.w3.org/2000/svg"><defs
     id="defs1" /><g
     id="layer1"
     style="display:inline"
     transform="translate(-86.974136,0.70710654)"><g
       id="g5"
       transform="matrix(6.2516545,0,0,6.2516545,-333.85368,-219.53939)"
       style="stroke-width:0.159958"><g
         id="g4"
         transform="matrix(0.94359631,0,0,0.94359631,4.2479033,2.425459)"
         style="stroke-width:0.169519"><path
           d="m 83.015342,42.561377 -1.710064,-0.458211 a 6.1350457,6.2354479 15 0 0 -0.365994,-1.405234 l 1.257738,-1.275479 a 0.67274783,0.68375759 15 0 0 0.004,-0.965793 l -2.406683,-2.44137 a 0.67274783,0.68375759 15 0 0 -0.95231,0.0038 l -1.257851,1.275903 A 6.0413446,6.1402134 15 0 0 76.198191,36.923619 L 75.747229,35.18984 a 0.67274783,0.68375759 15 0 0 -0.82282,-0.479453 l -3.305767,0.910723 a 0.67274783,0.68375759 15 0 0 -0.479455,0.838389 l 0.451303,1.732506 a 6.0340039,6.1327526 15 0 0 -1.019387,1.034932 l -1.710064,-0.45821 a 0.67274783,0.68375759 15 0 0 -0.826794,0.486338 l -0.898251,3.352318 a 0.67274783,0.68375759 15 0 0 0.472855,0.834579 l 1.710065,0.45821 a 6.0214817,6.1200254 15 0 0 0.14213,0.714158 6.1281368,6.228426 15 0 0 0.22375,0.691501 l -1.257625,1.275055 a 0.67274783,0.68375759 15 0 0 -0.004,0.965793 l 2.407517,2.441593 a 0.67274783,0.68375759 15 0 0 0.95231,-0.0038 l 1.257851,-1.275903 a 6.0413446,6.1402134 15 0 0 1.385987,0.371374 l 0.450962,1.733779 a 0.67274783,0.68375759 15 0 0 0.82282,0.479453 l 3.305767,-0.910723 a 0.67274783,0.68375759 15 0 0 0.479455,-0.838389 l -0.451303,-1.732506 a 6.0340039,6.1327526 15 0 0 1.019387,-1.034932 l 1.710064,0.45821 a 0.67274783,0.68375759 15 0 0 0.826794,-0.486338 l 0.898251,-3.352318 a 0.67274783,0.68375759 15 0 0 -0.473689,-0.834802 z"
           style="fill:#ff9166;stroke-width:0.0415099"
           id="path3" /><path
           d="m 67.573092,40.97936 0.449126,-1.67616 a 0.67274783,0.68375759 15 0 1 0.826908,-0.486763 l 1.710064,0.458211 a 6.0452308,6.1441632 15 0 1 1.019386,-1.034931 l -0.45225,-1.732307 a 0.67274783,0.68375759 15 0 1 0.479455,-0.838388 l 3.305766,-0.910724 a 0.67274783,0.68375759 15 0 1 0.822821,0.479453 l 0.451303,1.732508 a 6.0642301,6.1634734 15 0 1 1.385986,0.371374 l 1.257511,-1.274632 a 0.67274783,0.68375759 15 0 1 0.95231,-0.0038 l 2.407516,2.441593 a 0.67274783,0.68375759 15 0 1 -0.004,0.965793 l -1.25785,1.275904 a 6.1160464,6.2161377 15 0 1 0.36622,1.404386 l 1.710064,0.45821 a 0.67274783,0.68375759 15 0 1 0.472855,0.834579 l -0.449125,1.676159 z"
           style="fill:#ffb570;stroke-width:0.0415099"
           id="path4" /></g><ellipse
         cx="75.277092"
         cy="43.001785"
         style="fill:#ffffff;stroke-width:0.0391685"
         id="ellipse4"
         rx="3.8598797"
         ry="3.9230483" /><circle
         style="fill:#000000;fill-opacity:1;stroke:none;stroke-width:0.319915;stroke-linejoin:round;paint-order:stroke fill markers"
         id="circle4"
         cx="75.312935"
         cy="43.051159"
         r="2.2379243" /></g></g></svg>
