<svg xmlns="http://www.w3.org/2000/svg" width="460" height="460" viewBox="0 0 460 460"><g id="a01058ea-7040-4012-9597-02cf5c84631c" data-name="Layer 3"><path d="M399.67,174.88h-41a142.08,142.08,0,0,0-16.61-28.77l20.49-35.49a15.58,15.58,0,0,0-5.7-21.28L288.38,49.8a15.58,15.58,0,0,0-21.28,5.7L246.61,91a139.91,139.91,0,0,0-33.23,0L192.9,55.5a15.58,15.58,0,0,0-21.28-5.7L103.13,89.34a15.58,15.58,0,0,0-5.7,21.28l20.48,35.47a139.74,139.74,0,0,0-16.6,28.79h-41a15.58,15.58,0,0,0-15.58,15.58v79.08a15.58,15.58,0,0,0,15.58,15.58h41A139.45,139.45,0,0,0,108.77,300a141.92,141.92,0,0,0,9.15,13.9L97.43,349.38a15.58,15.58,0,0,0,5.7,21.28l68.49,39.54a15.58,15.58,0,0,0,21.28-5.7L213.39,369a139.91,139.91,0,0,0,33.23,0L267.1,404.5a15.58,15.58,0,0,0,21.28,5.7l68.49-39.54a15.58,15.58,0,0,0,5.7-21.28l-20.48-35.47a139.74,139.74,0,0,0,16.6-28.79h41a15.58,15.58,0,0,0,15.58-15.58V190.46A15.58,15.58,0,0,0,399.67,174.88Z" style="fill:#ff9166"/><path d="M44.75,231.13V191.59A15.58,15.58,0,0,1,60.33,176h41a140,140,0,0,1,16.6-28.79L97.43,111.75a15.58,15.58,0,0,1,5.7-21.28l68.49-39.54a15.58,15.58,0,0,1,21.28,5.7L213.38,92.1a140.44,140.44,0,0,1,33.23,0L267.1,56.63a15.58,15.58,0,0,1,21.28-5.7l68.49,39.54a15.58,15.58,0,0,1,5.7,21.28l-20.49,35.5A141.64,141.64,0,0,1,358.69,176h41a15.58,15.58,0,0,1,15.58,15.58v39.54Z" style="fill:#ffb570"/><circle cx="229.18" cy="230" r="89.39" style="fill:#fff"/><rect x="83.61" y="204.55" width="291.38" height="50.9" rx="25.45" style="fill:#fff"/><path d="M229.19,230l-38.68-38.68a54.7,54.7,0,1,0,77.83.48Z" style="fill:#ff9166"/></g></svg>