<svg id="b7c75bcc-3a8b-4650-9ac3-a733ac21467a" data-name="Layer 1" xmlns="http://www.w3.org/2000/svg" width="16" height="16" viewBox="0 0 16 16"><path d="M11.45,9.84a.49.49,0,0,1,0,.69l-.93.92a.49.49,0,0,1-.69,0L8,9.62,6.16,11.45a.49.49,0,0,1-.69,0l-.92-.92a.49.49,0,0,1,0-.69L6.38,8,4.55,6.17a.49.49,0,0,1,0-.69l.92-.93a.49.49,0,0,1,.69,0L8,6.39,9.83,4.55a.49.49,0,0,1,.69,0l.93.93a.49.49,0,0,1,0,.69L9.61,8Z" style="fill:#e0e0e0"/><path d="M13.71,2.67V13.33H2.29V2.67H13.71M14.56,0H1.44A1.55,1.55,0,0,0,0,1.65V14.32A1.58,1.58,0,0,0,1.42,16H14.56A1.55,1.55,0,0,0,16,14.35V1.68A1.58,1.58,0,0,0,14.58,0Z" style="fill:#e0e0e0"/></svg>