<?xml version="1.0" encoding="UTF-8" standalone="no"?>
<!-- Created with Inkscape (http://www.inkscape.org/) -->

<svg
   width="16"
   height="16"
   viewBox="0 0 16 16"
   version="1.1"
   id="svg1"
   xml:space="preserve"
   xmlns="http://www.w3.org/2000/svg"
   xmlns:svg="http://www.w3.org/2000/svg"><defs
     id="defs1" /><g
     id="layer1"
     style="display:inline"
     transform="translate(-16.9375,-17.67767)"><path
       fill="#8eef97"
       d="m 19.9375,20.67767 a 2,2 0 0 0 -2,2 v 6 a 2,2 0 0 0 2,2 h 10 a 2,2 0 0 0 2,-2 v -6 a 2,2 0 0 0 -2,-2 z m 7.293,3.307 a 1.0033908,1.0033908 0 0 1 1.424,1.414 l -3,3 a 1,1 0 0 1 -1.414,0 l -3,-3 a 1,1 0 0 1 1.414,-1.414 l 2.283,2.293 z"
       id="path1-2"
       style="display:inline;fill:#ff9166;fill-opacity:1" /></g></svg>
