<?xml version="1.0" encoding="UTF-8" standalone="no"?>
<!-- Created with Inkscape (http://www.inkscape.org/) -->

<svg
   width="16"
   height="16"
   viewBox="0 0 16 16"
   version="1.1"
   id="svg1"
   xml:space="preserve"
   xmlns="http://www.w3.org/2000/svg"
   xmlns:svg="http://www.w3.org/2000/svg"><defs
     id="defs1" /><g
     id="layer1"
     style="display:inline"
     transform="translate(-16.9375,-35.001786)"><path
       d="m 29.9375,41.001785 a 1,1 0 0 0 2,0 v -2 a 1,1 0 0 0 -2,0 z"
       id="path63"
       style="fill:#ffb570;fill-opacity:1" /><path
       d="m 23.9375,40.001785 a 1,1 0 1 0 2,0 1,1 0 0 0 -2,0 z"
       id="path62"
       style="fill:#ffb570;fill-opacity:1" /><path
       d="m 23.8045,45.001785 a 4,4 0 0 1 0,2 h 7.13 a 1,1 0 0 0 0,-2 z"
       id="path61"
       style="fill:#ff9166;fill-opacity:1" /><path
       d="m 17.9375,41.001785 a 1,1 0 0 0 2,0 v -2 a 1,1 0 0 0 -2,0 z"
       id="path60"
       style="fill:#ffb570;fill-opacity:1" /><path
       d="m 17.9375,46.001785 a 2,2 0 0 0 4,0 2,2 0 0 0 -4,0 z"
       id="path1-51"
       style="fill:#ff9166;fill-opacity:1" /></g></svg>
