<?xml version="1.0" encoding="UTF-8" standalone="no"?>
<!-- Created with Inkscape (http://www.inkscape.org/) -->

<svg
   width="16"
   height="16"
   viewBox="0 0 16 16"
   version="1.1"
   id="svg1"
   xml:space="preserve"
   xmlns="http://www.w3.org/2000/svg"
   xmlns:svg="http://www.w3.org/2000/svg"><defs
     id="defs1" /><g
     id="layer1"
     style="display:inline"
     transform="translate(0,-52.500001)"><path
       fill="#8eef97"
       d="m 5,56.5 a 4,4 0 0 0 -4,4 4,4 0 0 0 4,4 h 6 a 4,4 0 0 0 4,-4 4,4 0 0 0 -4,-4 z m 0,2 h 2.541 a 4,4 0 0 0 -0.54102,2 4,4 0 0 0 0.54102,2 H 5 a 2,2 0 0 1 -2,-2 2,2 0 0 1 2,-2 z"
       id="path1-21"
       style="fill:#ff9166;fill-opacity:1" /></g></svg>
