<svg width="16" height="16" viewBox="0 0 16 16" fill="none" xmlns="http://www.w3.org/2000/svg">
<path fill-rule="evenodd" clip-rule="evenodd" d="M14 9.42802V10H14.1502C14.2037 9.79824 14.1485 9.58245 14 9.42802ZM9.69109 14C9.57726 14.1094 9.42142 14.1765 9.25287 14.1765H6.91734C6.60426 14.1765 6.33502 13.9451 6.29745 13.6407L6.11587 12.2343C5.85914 12.1186 5.61494 11.9786 5.38327 11.8203L4.03705 12.3743C3.74902 12.4961 3.4109 12.3865 3.25437 12.1186L2.08346 10.1521C1.92693 9.88426 1.9958 9.54332 2.24626 9.36067L3.4109 8.50223C3.39838 8.3622 3.39211 8.22826 3.39211 8.08823C3.39211 7.9482 3.39838 7.81426 3.4109 7.68032L2.24626 6.82188C1.9958 6.63315 1.92693 6.29829 2.08346 6.03041L3.25437 4.05782C3.4109 3.78994 3.74902 3.68035 4.03705 3.80212L5.38327 4.35615C5.61494 4.19785 5.85914 4.05782 6.11587 3.94215L6.29745 2.53576C6.33502 2.23135 6.60426 2 6.9236 2H9.25913C9.57221 2 9.84142 2.23135 9.87901 2.53576L10.0606 3.94215C10.3173 4.05782 10.5615 4.19785 10.7932 4.35615L12.1394 3.80212C12.4275 3.68035 12.7656 3.78994 12.9221 4.05782L14.093 6.02432C14.2495 6.2922 14.1807 6.63315 13.9302 6.81579L12.7656 7.67423C12.7754 7.78462 12.7814 7.89122 12.7835 8H11H10.303C10.2552 6.86573 9.29135 5.95735 8.11328 5.95735C6.90481 5.95735 5.92176 6.9132 5.92176 8.08823C5.92176 9.22632 6.84397 10.1588 8 10.2163V11V13V14H9H9.69109ZM13.5819 11L12.9158 12.1186C12.7593 12.3865 12.4212 12.4961 12.1332 12.3743L10.7869 11.8203C10.5553 11.9786 10.311 12.1186 10.0544 12.2343L9.95549 13H9V12V11H10H11V10V9H12H13V10V11H13.5819ZM9.08085 10H10V9.17146C9.78333 9.52691 9.46348 9.81618 9.08085 10Z" fill="#E0E0E0"/>
<path fill-rule="evenodd" clip-rule="evenodd" d="M13 13H15V11H13V9H11V11H9V13H11V15H13V13Z" fill="#84FFB1"/>
</svg>
