<svg width="17" height="17" viewBox="0 0 17 17" fill="none" xmlns="http://www.w3.org/2000/svg">
<path d="M14.1707 8C14.1707 7.816 14.1625 7.64 14.1461 7.456L15.6764 6.328C16.0055 6.088 16.096 5.64 15.8903 5.288L14.3518 2.704C14.1461 2.352 13.7018 2.208 13.3233 2.368L11.5543 3.096C11.2499 2.888 10.929 2.704 10.5917 2.552L10.3531 0.704C10.3037 0.304 9.94996 0 9.53857 0H6.46966C6.05004 0 5.69626 0.304 5.64689 0.704L5.40829 2.552C5.07095 2.704 4.75007 2.888 4.44565 3.096L2.6767 2.368C2.29823 2.208 1.85394 2.352 1.64825 2.704L0.109673 5.296C-0.0960185 5.648 -0.00551423 6.088 0.323592 6.336L1.85394 7.464C1.83748 7.64 1.82925 7.816 1.82925 8C1.82925 8.184 1.83748 8.36 1.85394 8.544L0.323592 9.672C-0.00551423 9.912 -0.0960185 10.36 0.109673 10.712L1.64825 13.296C1.85394 13.648 2.29823 13.792 2.6767 13.632L4.44565 12.904C4.75007 13.112 5.07095 13.296 5.40829 13.448L5.64689 15.296C5.69626 15.696 6.05004 16 6.46143 16H9.53034C9.94173 16 10.2955 15.696 10.3449 15.296L10.5835 13.448C10.9208 13.296 11.2417 13.112 11.5461 12.904L13.3151 13.632C13.6935 13.792 14.1378 13.648 14.3435 13.296L15.8821 10.712C16.0878 10.36 15.9973 9.92 15.6682 9.672L14.1378 8.544C14.1625 8.36 14.1707 8.184 14.1707 8ZM8.03291 10.8C6.44497 10.8 5.15323 9.544 5.15323 8C5.15323 6.456 6.44497 5.2 8.03291 5.2C9.62085 5.2 10.9126 6.456 10.9126 8C10.9126 9.544 9.62085 10.8 8.03291 10.8Z" fill="#E0E0E0"/>
<path d="M14.3803 11.6197V10.3591C14.3803 10.1789 14.3447 9.96415 14.1972 9.78463C14.0445 9.59865 13.8428 9.536 13.6965 9.51388C13.5584 9.49301 13.4147 9.5003 13.3129 9.50618C13.2871 9.50768 13.2624 9.50921 13.2386 9.51068C13.1536 9.51595 13.0797 9.52053 13 9.52053C12.9203 9.52053 12.8464 9.51595 12.7614 9.51068C12.7376 9.50921 12.7129 9.50768 12.6871 9.50618C12.5853 9.5003 12.4416 9.49301 12.3035 9.51388C12.1572 9.536 11.9555 9.59865 11.8028 9.78463C11.6553 9.96415 11.6197 10.1789 11.6197 10.3591V11.6197H10.3591C10.1789 11.6197 9.96415 11.6553 9.78463 11.8028C9.59865 11.9555 9.536 12.1572 9.51388 12.3035C9.49301 12.4416 9.5003 12.5853 9.50618 12.6871C9.50768 12.7129 9.50921 12.7376 9.51068 12.7614C9.51595 12.8464 9.52053 12.9203 9.52053 13C9.52053 13.0797 9.51595 13.1536 9.51068 13.2386C9.50921 13.2624 9.50768 13.2871 9.50618 13.3129C9.5003 13.4147 9.49301 13.5584 9.51388 13.6965C9.536 13.8428 9.59865 14.0445 9.78463 14.1972C9.96415 14.3447 10.1789 14.3803 10.3591 14.3803H11.6197V15.6409C11.6197 15.8211 11.6553 16.0358 11.8028 16.2154C11.9555 16.4013 12.1572 16.464 12.3035 16.4861C12.4416 16.507 12.5853 16.4997 12.6871 16.4938C12.7129 16.4923 12.7376 16.4908 12.7614 16.4893C12.8464 16.484 12.9203 16.4795 13 16.4795C13.0797 16.4795 13.1536 16.484 13.2386 16.4893C13.2624 16.4908 13.2871 16.4923 13.3129 16.4938C13.4147 16.4997 13.5584 16.507 13.6965 16.4861C13.8428 16.464 14.0445 16.4013 14.1972 16.2154C14.3447 16.0358 14.3803 15.8211 14.3803 15.6409V14.3803H15.6409C15.8211 14.3803 16.0358 14.3447 16.2154 14.1972C16.4013 14.0445 16.464 13.8428 16.4861 13.6965C16.507 13.5584 16.4997 13.4147 16.4938 13.3129C16.4923 13.2871 16.4908 13.2624 16.4893 13.2386C16.484 13.1536 16.4795 13.0797 16.4795 13C16.4795 12.9203 16.484 12.8464 16.4893 12.7613C16.4908 12.7376 16.4923 12.7129 16.4938 12.6871C16.4997 12.5853 16.507 12.4416 16.4861 12.3035C16.464 12.1572 16.4013 11.9555 16.2154 11.8028C16.0358 11.6553 15.8211 11.6197 15.6409 11.6197H14.3803Z" fill="#84FFB1" stroke="black"/>
</svg>
