<svg id="a46123ef-b8c0-4b4e-80a2-62acd57c05fb" data-name="Layer 1" xmlns="http://www.w3.org/2000/svg" width="16" height="16" viewBox="0 0 16 16"><path d="M7.45,2,3.72,5.39a.41.41,0,0,1-.28.11h-3A.41.41,0,0,0,0,5.87v4.2a.4.4,0,0,0,.41.37h3a.41.41,0,0,1,.28.11L7.45,14A.44.44,0,0,0,8,14a.35.35,0,0,0,.11-.32V2.28a.38.38,0,0,0-.41-.36A.43.43,0,0,0,7.45,2ZM6.34,10.58,4.48,8.9a.46.46,0,0,0-.3-.11h-2a.39.39,0,0,1-.41-.37v-.9a.39.39,0,0,1,.41-.37h2A.46.46,0,0,0,4.48,7L6.32,5.36Z" style="fill:#98ef7c"/><polygon points="13.9 7.97 16 9.86 14.43 11.29 12.33 9.39 10.23 11.29 8.65 9.86 10.75 7.97 8.65 6.07 10.23 4.64 12.33 6.54 14.43 4.64 16 6.07 13.9 7.97" style="fill:#98ef7c"/></svg>