<svg id="b653db53-0730-4380-a6fe-4957aad4bc2f" data-name="Layer 1" xmlns="http://www.w3.org/2000/svg" width="16" height="16" viewBox="0 0 16 16"><path d="M14.5,0H5.71A1.51,1.51,0,0,0,4.22,1.51V6.58H6.57V2.35h7.08V9.42H9.43v2.35H14.5A1.49,1.49,0,0,0,16,10.29V1.51A1.51,1.51,0,0,0,14.5,0Z" style="fill:#e0e0e0"/><path d="M11.54,4.93a1.38,1.38,0,0,0-.44-.46,1.47,1.47,0,0,0-.81-.24H1.5A1.49,1.49,0,0,0,0,5.71v8.77A1.51,1.51,0,0,0,1.5,16h8.79a1.51,1.51,0,0,0,1.49-1.51V5.71A1.36,1.36,0,0,0,11.54,4.93ZM2.4,13.65V6.58h7v7.07Z" style="fill:#e0e0e0"/></svg>