<svg id="b357d067-c9f4-4fcc-9d29-275dd2080464" data-name="Layer 1" xmlns="http://www.w3.org/2000/svg" width="16" height="16" viewBox="0 0 16 16"><path d="M13.27,4.08v7.86a1.35,1.35,0,0,1-1.34,1.33H8.44V11.16h2.72V4.84H4.83V7.57H2.72V4.08A1.36,1.36,0,0,1,4.06,2.73h7.87A1.36,1.36,0,0,1,13.27,4.08Z" style="fill:#e0e0e0"/><path d="M16,1.35V9.21a1.34,1.34,0,0,1-1.34,1.33h-3.5V8.43h2.73V2.11H7.56V4.84H5.45V1.35A1.36,1.36,0,0,1,6.79,0h7.87A1.36,1.36,0,0,1,16,1.35Z" style="fill:#e0e0e0"/><path d="M10.33,6.09a1.12,1.12,0,0,0-.4-.41,1.33,1.33,0,0,0-.72-.22H1.34A1.34,1.34,0,0,0,0,6.79v7.85A1.34,1.34,0,0,0,1.34,16H9.21a1.36,1.36,0,0,0,1.34-1.35V6.79A1.26,1.26,0,0,0,10.33,6.09Zm-1.89,7.8H2.11V7.57H8.44Z" style="fill:#e0e0e0"/></svg>