<svg id="aa9c6111-fe1e-47eb-9ae0-7595f13aab79" data-name="Layer 1" xmlns="http://www.w3.org/2000/svg" width="16" height="16" viewBox="0 0 16 16"><path d="M13.71,2.67V13.33H2.29V2.67H13.71M14.56,0H1.44A1.55,1.55,0,0,0,0,1.65V14.32A1.57,1.57,0,0,0,1.42,16H14.56A1.55,1.55,0,0,0,16,14.35V1.68A1.57,1.57,0,0,0,14.58,0Z" style="fill:#e0e0e0"/><path d="M7.73,4.5V8.88A2.62,2.62,0,0,1,5.11,11.5H3.35v-7H5.1V9.75A.88.88,0,0,0,6,8.89H6V4.5Z" style="fill:#e0e0e0"/><path d="M12.65,4.5V6.25h-.88a.87.87,0,0,0-.87.87V8.88A2.62,2.62,0,0,1,8.28,11.5H7.4V9.75h.87a.89.89,0,0,0,.88-.87V7.12A2.62,2.62,0,0,1,11.77,4.5Z" style="fill:#e0e0e0"/></svg>