<svg id="baae1ece-272f-4597-9712-e2763a81a030" data-name="Layer 1" xmlns="http://www.w3.org/2000/svg" width="16.3" height="16" viewBox="0 0 16.3 16"><path d="M7.37,16A1.33,1.33,0,0,1,6,14.89l-.24-1.45a5,5,0,0,1-.85-.37,6,6,0,0,1-.8-.5l-1.34.6a1.34,1.34,0,0,1-1.7-.53L.33,11.37A1.25,1.25,0,0,1,.67,9.71L2,8.8a3.08,3.08,0,0,1,0-.43V7.56a3.08,3.08,0,0,1,0-.43L.67,6.23A1.22,1.22,0,0,1,.35,4.56l.71-1.33A1.34,1.34,0,0,1,2.8,2.76l1.34.6a5.71,5.71,0,0,1,.77-.51,4.94,4.94,0,0,1,.84-.3L6,1.08A1.33,1.33,0,0,1,7.33,0H9a1.34,1.34,0,0,1,1.34,1.08l.24,1.47a4.52,4.52,0,0,1,.85.36,3.59,3.59,0,0,1,.77.52l1.36-.6a1.35,1.35,0,0,1,1.7.46L16,4.63a1.23,1.23,0,0,1-.39,1.66l-1.34.87a3.23,3.23,0,0,1,0,.44v.85a3.08,3.08,0,0,1,0,.43l1.34.89A1.25,1.25,0,0,1,16,11.44l-.76,1.27a1.33,1.33,0,0,1-1.71.53l-1.32-.67a5.67,5.67,0,0,1-.76.52,3.41,3.41,0,0,1-.86.36l-.29,1.46A1.34,1.34,0,0,1,8.92,16Zm.79-5.33A2.66,2.66,0,0,0,10.83,8h0A2.66,2.66,0,0,0,8.16,5.31h0a2.66,2.66,0,0,0-1.93.76,2.52,2.52,0,0,0-.12,3.58l.12.11A2.67,2.67,0,0,0,8.16,10.64Z" style="fill:#e0e0e0"/></svg>