<svg id="fdb05025-13b7-47fc-97a5-899e221e3c45" data-name="Layer 1" xmlns="http://www.w3.org/2000/svg" width="16" height="16" viewBox="0 0 16 16"><path d="M7.47,2.05,3.74,5.42a.44.44,0,0,1-.29.11h-3A.41.41,0,0,0,0,5.9v4.2a.41.41,0,0,0,.41.37h3a.44.44,0,0,1,.29.11L7.47,14a.43.43,0,0,0,.58,0,.32.32,0,0,0,.12-.31V2.31a.4.4,0,0,0-.41-.37A.44.44,0,0,0,7.47,2.05ZM6.36,10.61,4.49,8.93a.46.46,0,0,0-.3-.11h-2a.39.39,0,0,1-.41-.37v-.9a.39.39,0,0,1,.41-.37h2a.46.46,0,0,0,.3-.11L6.34,5.39Z" style="fill:#98ef7c"/><path d="M16,8a7.61,7.61,0,0,1-6.39,7.22V13.78a.37.37,0,0,1,.28-.34c3.33-1,5.09-4.33,3.93-7.33A6.1,6.1,0,0,0,9.89,2.56a.37.37,0,0,1-.28-.34V.78A7.61,7.61,0,0,1,16,8Z" style="fill:#98ef7c"/><path d="M11.89,8a3.68,3.68,0,0,1-2.22,3.31V4.68A3.69,3.69,0,0,1,11.89,8Z" style="fill:#98ef7c"/></svg>