<svg id="b989bdfd-280b-45ed-b7a8-d69370336dbd" data-name="Layer 1" xmlns="http://www.w3.org/2000/svg" width="16" height="16" viewBox="0 0 16 16"><path d="M12.74,9.71v1.72H8.17V9.71A1.77,1.77,0,0,1,10,8h0a.86.86,0,1,0,0-1.71H9.14V4.57h.92A2.67,2.67,0,0,1,12.8,7.14a2.68,2.68,0,0,1-2.75,2.58h2.69Z" style="fill:#e0e0e0"/><polygon points="6.79 9.14 7.83 10.18 6.59 11.43 5.55 10.39 4.49 11.43 3.26 10.18 4.3 9.14 3.26 8.1 4.49 6.86 5.55 7.91 6.59 6.86 7.83 8.1 6.79 9.14" style="fill:#e0e0e0"/><path d="M13.71,2.67V13.33H2.29V2.67H13.71M14.56,0H1.44A1.55,1.55,0,0,0,0,1.65V14.32A1.57,1.57,0,0,0,1.42,16H14.56A1.55,1.55,0,0,0,16,14.35V1.68A1.57,1.57,0,0,0,14.58,0Z" style="fill:#e0e0e0"/></svg>