<svg id="b7a4988f-ba7c-44fa-bab9-1af0ad4a7bf2" data-name="Layer 1" xmlns="http://www.w3.org/2000/svg" width="16" height="16" viewBox="0 0 16 16"><path d="M13.71,2.67V13.33H2.29V2.67H13.71M14.56,0H1.44A1.55,1.55,0,0,0,0,1.65V14.32A1.57,1.57,0,0,0,1.42,16H14.56A1.55,1.55,0,0,0,16,14.35V1.68A1.57,1.57,0,0,0,14.58,0Z" style="fill:#e0e0e0"/><polygon points="7.29 3.67 7.29 5.67 5.29 5.67 5.29 7.67 3.29 7.67 3.29 3.67 7.29 3.67" style="fill:#e0e0e0"/><polygon points="8.71 12.27 8.71 10.28 10.71 10.28 10.71 8.27 12.71 8.27 12.71 12.27 8.71 12.27" style="fill:#e0e0e0"/></svg>