<svg id="bd5e3936-88ee-45db-8842-2620183d7ea1" data-name="Layer 1" xmlns="http://www.w3.org/2000/svg" width="16" height="16" viewBox="0 0 16 16"><path d="M15,3H8.58V3H1.07A1,1,0,0,0,0,4v8a1,1,0,0,0,1.07,1H7.6v0H15A1,1,0,0,0,16,12V4A1,1,0,0,0,15,3ZM1.42,4.64H3.58V6.29H1.42Zm0,2.78H3.58V9.08H1.42Zm5.74,4.35H1.42V10H7.16Zm0-2.69H5V7.42H7.16Zm0-2.79H5V4.64H7.16Zm4.66-1.36A1.09,1.09,0,1,1,10.74,6,1.08,1.08,0,0,1,11.82,4.93ZM9.88,9.09A1.09,1.09,0,1,1,11,8,1.08,1.08,0,0,1,9.88,9.09Zm1.94,2A1.07,1.07,0,1,1,12.89,10,1.07,1.07,0,0,1,11.82,11.05Zm2-2A1.09,1.09,0,1,1,14.88,8,1.08,1.08,0,0,1,13.81,9.09Z" style="fill:#e1da5b;fill-rule:evenodd"/></svg>