<svg id="a31b293c-0043-4d94-8d31-2637dfe25645" data-name="Layer 1" xmlns="http://www.w3.org/2000/svg" width="16" height="16" viewBox="0 0 16 16"><path d="M10.37,8.79l.51.51a1.11,1.11,0,0,1,0,1.57h0a1.11,1.11,0,0,1-1.57,0l-.53-.53a1.12,1.12,0,0,0-1.57,0l-.53.54a1.12,1.12,0,0,1-1.57,0h0a1.1,1.1,0,0,1,0-1.57l.51-.51a1.1,1.1,0,0,0,0-1.57L5.12,6.7a1.1,1.1,0,0,1,0-1.57h0a1.12,1.12,0,0,1,1.57,0l.53.54a1.12,1.12,0,0,0,1.57,0l.53-.53a1.11,1.11,0,0,1,1.57,0h0a1.12,1.12,0,0,1,0,1.57l-.52.52A1.1,1.1,0,0,0,10.37,8.79Z" style="fill:#e1da5b"/><path d="M8,0a8,8,0,1,0,8,8A8,8,0,0,0,8,0ZM8,13.39A5.39,5.39,0,1,1,13.39,8,5.39,5.39,0,0,1,8,13.39Z" style="fill:#e1da5b"/></svg>