<?xml version="1.0" encoding="UTF-8" standalone="no"?>
<!-- Created with Inkscape (http://www.inkscape.org/) -->

<svg
   width="16"
   height="16"
   viewBox="0 0 16 16"
   version="1.1"
   id="svg1"
   xml:space="preserve"
   xmlns="http://www.w3.org/2000/svg"
   xmlns:svg="http://www.w3.org/2000/svg"><defs
     id="defs1" /><g
     id="layer1"
     style="display:inline"
     transform="translate(-33.75)"><g
       id="g35"
       style="display:inline"><path
         style="color:#000000;fill:#ff9166;fill-opacity:1;stroke-linecap:round;stroke-linejoin:round;-inkscape-stroke:none"
         d="m 43.99935,3.2187509 5,4.0000013 a 1.0001,1.0001 0 0 1 0.02344,0.05078 1,1 0 0 1 0.35156,0.730469 1,1 0 0 1 -0.351562,0.730468 1.0001,1.0001 0 0 1 -0.02344,0.05078 l -5,3.9999998 a 1,1 0 0 1 -1.40625,-0.15625 1,1 0 0 1 0.15625,-1.40625 L 45.522786,8.9999992 H 40.37435 a 1,1 0 0 1 -1,-1 1,1 0 0 1 1,-1.0000013 h 5.148438 L 42.74935,4.7812509 a 1,1 0 0 1 -0.15625,-1.40625 1,1 0 0 1 1.40625,-0.15625 z"
         id="path34" /><path
         style="color:#000000;fill:#ffb570;fill-opacity:1;stroke-linecap:round;stroke-linejoin:round;-inkscape-stroke:none"
         d="m 39.500345,3.218751 -5,4.0000013 a 1.0001,1.0001 0 0 0 -0.02344,0.05078 1,1 0 0 0 -0.35156,0.7304689 1,1 0 0 0 0.351562,0.730468 1.0001,1.0001 0 0 0 0.02344,0.05078 l 5,3.9999998 a 1,1 0 0 0 1.40625,-0.15625 1,1 0 0 0 -0.15625,-1.40625 L 37.976909,8.9999991 h 5.148436 a 1,1 0 0 0 1,-0.9999999 1,1 0 0 0 -1,-1.0000013 h -5.148438 l 2.773438,-2.218747 a 1,1 0 0 0 0.15625,-1.40625 1,1 0 0 0 -1.40625,-0.1562499 z"
         id="path35" /></g></g></svg>
