<svg id="a747356e-da76-4d43-97f5-1f153056c90e" data-name="Layer 1" xmlns="http://www.w3.org/2000/svg" width="16.3" height="16" viewBox="0 0 16.3 16"><path d="M5.64,14a1.14,1.14,0,0,1-.88-.4L0,7.84,5.12,2.35a1.18,1.18,0,0,1,1.55-.11A.94.94,0,0,1,6.8,3.65l-4,4.27L6.52,12.4a1,1,0,0,1-.22,1.4A1.22,1.22,0,0,1,5.64,14Z" style="fill:#8eef97"/><path d="M10.34,14a1.15,1.15,0,0,1-.71-.24.94.94,0,0,1-.13-1.41l4-4.27L9.79,3.6A.94.94,0,0,1,10,2.2a1.18,1.18,0,0,1,1.54.2L16.3,8.16l-5.12,5.49A1.16,1.16,0,0,1,10.34,14Z" style="fill:#8eef97"/></svg>