<svg id="ff4ae4c3-b8ce-4c50-9e76-c1724920af48" data-name="Layer 1" xmlns="http://www.w3.org/2000/svg" width="16.3" height="16" viewBox="0 0 16.3 16"><path d="M3.49.43A1.16,1.16,0,0,0,2.33,1.6V12.17a1.12,1.12,0,0,0,1.16,1.07h9.32A1.12,1.12,0,0,0,14,12.17V1.6A1.16,1.16,0,0,0,12.81.43Zm1.8,1.33H6.91L9.05,6.65h1.5v.51a3.07,3.07,0,0,1,1.88.65,1.86,1.86,0,0,1,.64,1.5,1.91,1.91,0,0,1-.64,1.53,3.12,3.12,0,0,1-1.88.65V12H9.05v-.55a3.23,3.23,0,0,1-1.88-.66,1.87,1.87,0,0,1-.64-1.51,1.87,1.87,0,0,1,.64-1.5,3.3,3.3,0,0,1,1.88-.65V6.65H7.34L7,5.79H5.16l-.33.86H3.15L5.29,1.76Zm.8,1.62L5.61,4.61h.95Zm4.47,5.05V10.2a1.2,1.2,0,0,0,.7-.28.8.8,0,0,0,.22-.61.78.78,0,0,0-.22-.6,1.23,1.23,0,0,0-.7-.28Zm-1.51,0a1.27,1.27,0,0,0-.71.28.81.81,0,0,0-.21.6.78.78,0,0,0,.22.6,1.34,1.34,0,0,0,.7.29V8.43Z" style="fill:#8eef97;fill-opacity:0.9959999918937683"/><path d="M0,2.76V13.24a2.33,2.33,0,0,0,2.33,2.33H14a2.33,2.33,0,0,0,2.33-2.33V2.76H15.14V13.24A1.17,1.17,0,0,1,14,14.4H2.33a1.17,1.17,0,0,1-1.17-1.16V2.76Z" style="fill:#8eef97;fill-opacity:0.9959999918937683"/></svg>