<svg id="bc5e6eee-e8d9-4ce1-bf31-9104b3271176" data-name="Layer 1" xmlns="http://www.w3.org/2000/svg" width="16.3" height="16" viewBox="0 0 16.3 16"><path d="M13.86,2.67V13.33H2.44V2.67H13.86M14.71,0H1.59A1.55,1.55,0,0,0,.15,1.65V14.32A1.57,1.57,0,0,0,1.57,16H14.71a1.55,1.55,0,0,0,1.44-1.65V1.68A1.57,1.57,0,0,0,14.73,0Z" style="fill:#8eef97"/><path d="M8.85,3.76A4.24,4.24,0,0,0,4.6,8H6a2.83,2.83,0,1,1,2.83,2.83v1.41a4.24,4.24,0,0,0,0-8.48Z" style="fill:#8eef97;fill-opacity:0.9960799813270569"/><path d="M7.45,8,6.39,9.41,5.33,10.82,4.27,9.41,3.21,8H7.45Z" style="fill:#8eef97;fill-opacity:0.9960799813270569"/></svg>