<svg id="bff262ba-b1dd-4b47-8dfc-2dea3458f825" data-name="Layer 1" xmlns="http://www.w3.org/2000/svg" width="16" height="16" viewBox="0 0 16 16"><path d="M2.67,6.64V9.36c-.06.75-.58,1.29-1.17,1.22a1.24,1.24,0,0,1-1-1.22V6.64A1.23,1.23,0,0,1,1.6,5.29h0A1.12,1.12,0,0,1,2.67,6.48Z" style="fill:#98ef7c"/><path d="M6.93,1.23V14.77c-.06.75-.58,1.3-1.17,1.22a1.24,1.24,0,0,1-1-1.22V1.23C4.86.48,5.38-.07,6,0A1.24,1.24,0,0,1,6.93,1.23Z" style="fill:#98ef7c"/><path d="M11.2,3.93v8.14c-.06.74-.58,1.29-1.17,1.22a1.25,1.25,0,0,1-1-1.22V3.93c.06-.74.58-1.29,1.17-1.22A1.25,1.25,0,0,1,11.2,3.93Z" style="fill:#98ef7c"/><path d="M15.46,6.64V9.36c-.06.75-.58,1.29-1.17,1.22a1.24,1.24,0,0,1-1-1.22V6.64c.06-.75.58-1.29,1.17-1.22A1.24,1.24,0,0,1,15.46,6.64Z" style="fill:#98ef7c"/></svg>