<svg xmlns="http://www.w3.org/2000/svg" width="15" height="15" viewBox="0 0 15 15"><g id="b991fec5-f9b0-4c88-b529-62c26a16a05f" data-name="Layer 2"><g id="e6e9e42c-42f8-4fc6-8d50-794850aacc63" data-name="Layer 1"><path d="M5,0A5.26,5.26,0,0,0,2,1V8A5,5,0,0,1,8,8a5,5,0,0,1,6,0V1a5.26,5.26,0,0,0-3-1A5,5,0,0,0,9,.46V5H8V1A5.53,5.53,0,0,0,5,0ZM0,9v6H2A3,3,0,0,0,2,9Zm5,3A3,3,0,1,0,8,9,3,3,0,0,0,5,12Zm6,0a3,3,0,0,0,3,3h1V13H14a1,1,0,0,1,0-2h1V9H14A3,3,0,0,0,11,12ZM2,11a1,1,0,0,1,0,2Zm6,0a1,1,0,1,1-1,1A1,1,0,0,1,8,11Z" style="fill:#e0e0e0"/></g></g></svg>