<svg id="b9f14ada-6f72-47cb-b926-be5120fe53a0" data-name="Layer 1" xmlns="http://www.w3.org/2000/svg" xmlns:xlink="http://www.w3.org/1999/xlink" width="16" height="16" viewBox="0 0 16 16"><defs><linearGradient id="a317b568-114b-452b-9828-f8e7ab53e5fa" x1="8" x2="8" y2="16" gradientUnits="userSpaceOnUse"><stop offset="0.19" stop-color="#ff4545"/><stop offset="0.19" stop-color="#ffe345"/><stop offset="0.31" stop-color="#ffe345"/><stop offset="0.31" stop-color="#80ff45"/><stop offset="0.44" stop-color="#80ff45"/><stop offset="0.44" stop-color="#45ffa2"/><stop offset="0.56" stop-color="#45ffa2"/><stop offset="0.56" stop-color="#45d7ff"/><stop offset="0.69" stop-color="#45d7ff"/><stop offset="0.69" stop-color="#8045ff"/><stop offset="0.81" stop-color="#8045ff"/><stop offset="0.81" stop-color="#ff4596"/></linearGradient></defs><path d="M12.84,8A14.83,14.83,0,0,0,10.5,4.5,28.7,28.7,0,0,1,8,1,29.82,29.82,0,0,1,5.5,4.5,14.9,14.9,0,0,0,3.15,8a4.51,4.51,0,0,0-.4,1.75,5.17,5.17,0,0,0,.32,1.75,5.22,5.22,0,0,0,9.85,0,5.18,5.18,0,0,0,.33-1.75A4.52,4.52,0,0,0,12.84,8ZM8.26,13.31V12A2.66,2.66,0,1,0,5.6,9.33H6.93L4.93,12l-2-2.66H4.27a4,4,0,1,1,4,4Z" style="fill:url(#a317b568-114b-452b-9828-f8e7ab53e5fa)"/></svg>