<svg xmlns="http://www.w3.org/2000/svg" width="16" height="16" viewBox="0 0 16 16"><g id="a0baddc9-6785-4b43-8df7-7f50d5cadd4e" data-name="Layer 3"><path d="M15.33,5.58H13.56c-.1-.22-.2-.44-.32-.65a7.15,7.15,0,0,0-.4-.61l.88-1.56a.68.68,0,0,0-.24-.93l-3-1.74A.67.67,0,0,0,9.6.34L8.72,1.9a5.78,5.78,0,0,0-1.44,0L6.4.34A.67.67,0,0,0,5.48.09l-3,1.74a.68.68,0,0,0-.24.93l.88,1.56a6.31,6.31,0,0,0-.72,1.26H.67A.68.68,0,0,0,0,6.26V9.74a.68.68,0,0,0,.67.68H2.44c.1.22.2.44.32.65a7.15,7.15,0,0,0,.4.61l-.88,1.56a.68.68,0,0,0,.24.93l3,1.74a.67.67,0,0,0,.92-.25l.88-1.56a5.78,5.78,0,0,0,1.44,0l.88,1.56a.67.67,0,0,0,.92.25l3-1.74a.68.68,0,0,0,.24-.93l-.88-1.56a6.31,6.31,0,0,0,.72-1.26h1.77A.68.68,0,0,0,16,9.74V6.26A.68.68,0,0,0,15.33,5.58Z" style="fill:#ff9166"/><path d="M0,8.05V6.31a.68.68,0,0,1,.67-.68H2.44a6,6,0,0,1,.72-1.26L2.28,2.81a.68.68,0,0,1,.24-.93l3-1.74A.67.67,0,0,1,6.4.39L7.28,2A5.78,5.78,0,0,1,8.72,2L9.6.39a.67.67,0,0,1,.92-.25l3,1.74a.68.68,0,0,1,.24.93l-.88,1.56a7.15,7.15,0,0,1,.4.61c.12.21.22.43.32.65h1.77a.68.68,0,0,1,.67.68V8.05Z" style="fill:#ffb570"/><ellipse cx="7.96" cy="8" rx="3.86" ry="3.92" style="fill:#fff"/><rect x="1.68" y="6.88" width="12.58" height="2.23" rx="1.11" style="fill:#fff"/><path d="M8,8,6.29,6.3a2.46,2.46,0,0,0,0,3.4,2.36,2.36,0,0,0,3.35,0,2.46,2.46,0,0,0,0-3.38Z" style="fill:#ff9166"/></g></svg>