<svg id="a0af506a-55d3-41dc-aa4c-201958b9abf4" data-name="Layer 1" xmlns="http://www.w3.org/2000/svg" width="16.3" height="16" viewBox="0 0 16.3 16"><path d="M7.28,12H8.82V7.26H7.28ZM8,6.15a.89.89,0,0,0,.65-.26.82.82,0,0,0,.25-.63.86.86,0,0,0-.26-.66A.9.9,0,0,0,8,4.34a.89.89,0,0,0-.65.26.87.87,0,0,0-.25.65.85.85,0,0,0,.26.64A.9.9,0,0,0,8,6.15ZM8,16A7.95,7.95,0,0,1,0,8,8,8,0,0,1,.62,4.88,7.79,7.79,0,0,1,2.33,2.34,8.23,8.23,0,0,1,4.87.63,7.73,7.73,0,0,1,8,0a7.78,7.78,0,0,1,3.13.63,8,8,0,0,1,4.25,4.25A7.78,7.78,0,0,1,16,8a7.73,7.73,0,0,1-.63,3.12,8,8,0,0,1-4.25,4.24A7.78,7.78,0,0,1,8,16Z" style="fill:#e0e0e0"/></svg>