<svg id="aa9ca899-de87-46a9-b63b-9eef28df138f" data-name="Layer 1" xmlns="http://www.w3.org/2000/svg" width="16" height="16" viewBox="0 0 16 16"><path d="M.64,12.82V11.34h2l-.29-.26A4.65,4.65,0,0,1,1,9.13a6.5,6.5,0,0,1-.39-2.2A5.83,5.83,0,0,1,1.88,3.27,5.81,5.81,0,0,1,5.09,1.14V2.7a4.47,4.47,0,0,0-3,4.23A4.22,4.22,0,0,0,3.42,10l.19.19V8.37H5.09v4.45ZM13.93,6.15h-1.5A3.84,3.84,0,0,0,12,4.91a4.58,4.58,0,0,0-.82-1.13L11,3.59V5.41H9.54V1H14V2.44H12l.29.26a6,6,0,0,1,1.17,1.65A6.08,6.08,0,0,1,13.93,6.15ZM11,15l-.22-1.11a4.09,4.09,0,0,1-.42-.2,2.59,2.59,0,0,1-.4-.25l-1.07.34-.74-1.26L9,11.82a2.9,2.9,0,0,1,0-.48,2.93,2.93,0,0,1,0-.49l-.85-.74.74-1.26L10,9.19a2.59,2.59,0,0,1,.4-.25,4.09,4.09,0,0,1,.42-.2L11,7.63H12.5l.22,1.11a4.09,4.09,0,0,1,.42.2,4.21,4.21,0,0,1,.4.28l1.07-.37.75,1.3-.86.74a2.32,2.32,0,0,1,0,.46,2.42,2.42,0,0,1,0,.47l.86.74-.75,1.26-1.07-.34a2.59,2.59,0,0,1-.4.25,4.09,4.09,0,0,1-.42.2L12.5,15Zm.74-2.22a1.44,1.44,0,0,0,1.05-.44,1.48,1.48,0,0,0,0-2.09,1.48,1.48,0,0,0-2.53,1.05,1.42,1.42,0,0,0,.43,1A1.44,1.44,0,0,0,11.76,12.82Z" style="fill:#e0e0e0"/></svg>