<svg id="a18a26ae-64ca-419b-b48a-aa31370df270" data-name="Layer 1" xmlns="http://www.w3.org/2000/svg" width="16.3" height="16" viewBox="0 0 16.3 16"><path d="M13.86,2.67V13.33H2.44V2.67H13.86M14.71,0H1.59A1.55,1.55,0,0,0,.15,1.65V14.32A1.57,1.57,0,0,0,1.57,16H14.71a1.55,1.55,0,0,0,1.44-1.65V1.68A1.57,1.57,0,0,0,14.73,0Z" style="fill:#e0e0e0"/><path d="M12.4,6.17l-4,4L7.12,11.45a.47.47,0,0,1-.58.07L5.43,10.41,3.9,8.88a.49.49,0,0,1,0-.69l.93-.93a.48.48,0,0,1,.68,0L6.79,8.54l4-4a.49.49,0,0,1,.69,0l.93.93A.49.49,0,0,1,12.4,6.17Z" style="fill:#e0e0e0"/></svg>