<?xml version="1.0" encoding="UTF-8" standalone="no"?>
<!-- Created with Inkscape (http://www.inkscape.org/) -->

<svg
   width="16"
   height="16"
   viewBox="0 0 16 16"
   version="1.1"
   id="svg1"
   xml:space="preserve"
   xmlns="http://www.w3.org/2000/svg"
   xmlns:svg="http://www.w3.org/2000/svg"><defs
     id="defs1" /><g
     id="layer1"
     style="display:inline"
     transform="translate(-67.3125)"><path
       d="M 23.138922,1.077 22.636969,3.0887188 22.021734,3.3445781 20.244391,2.2762188 18.980719,3.5398906 20.045172,5.3152812 19.797125,5.9285625 17.7815,6.4344219 v 1.7851562 l 2.011719,0.5019532 0.255859,0.6113281 -1.068359,1.7812496 1.263672,1.263672 1.77539,-1.068359 0.613281,0.248047 0.50586,2.019531 h 1.785156 l 0.5,-2.011719 0.613281,-0.259765 1.78125,1.072265 1.263672,-1.263672 L 28.013922,9.3367656 28.265875,8.7215313 30.2815,8.2195781 V 6.4344219 L 28.269781,5.9285625 28.011969,5.3172344 29.082281,3.5398906 27.818609,2.2762188 26.043219,3.3406719 25.426031,3.092625 24.924078,1.077 Z M 24.0315,5.202 a 2.125,2.125 0 0 1 2.125,2.125 2.125,2.125 0 0 1 -2.125,2.125 2.125,2.125 0 0 1 -2.125,-2.125 2.125,2.125 0 0 1 2.125,-2.125 z"
       style="display:inline;fill:#e0e0e0;stroke-width:1.78571"
       id="path42"
       transform="translate(51.281,0.673)" /></g></svg>
