<?xml version="1.0" encoding="UTF-8" standalone="no"?>
<!-- Created with Inkscape (http://www.inkscape.org/) -->

<svg
   width="16"
   height="16"
   viewBox="0 0 16 16"
   version="1.1"
   id="svg1"
   xml:space="preserve"
   xmlns="http://www.w3.org/2000/svg"
   xmlns:svg="http://www.w3.org/2000/svg"><defs
     id="defs1" /><g
     id="layer1"
     style="display:inline"
     transform="translate(-50.5,-35.001786)"><path
       d="m 54,36.501785 a 2,2 0 0 0 -2,2 v 9 a 2,2 0 0 0 2,2 h 9 a 2,2 0 0 0 2,-2 v -5 l -2,2 v 3 h -9 v -9 h 7 l 2,-2 z"
       id="path67"
       style="fill:#e0e0e0;fill-opacity:1" /><path
       style="color:#000000;fill:#e0e0e0;-inkscape-stroke:none"
       d="m 56.019531,39.107254 -1.414062,1.414062 2.480468,2.480469 -2.480468,2.480469 1.414062,1.414062 L 58.5,44.415848 60.980469,46.896316 62.394531,45.482254 59.914062,43.001785 62.394531,40.521316 60.980469,39.107254 58.5,41.587723 Z"
       id="path1-0" /><path
       d="m 63,36.501785 a 2,2 0 0 1 2,2 v 9 a 2,2 0 0 1 -2,2 h -9 a 2,2 0 0 1 -2,-2 v -5 l 2,2 v 3 h 9 v -9 h -7 l -2,-2 z"
       id="path68"
       style="fill:#e0e0e0;fill-opacity:1" /></g></svg>
