<svg id="bc870507-cbc2-49b2-bbb0-001f5173543c" data-name="Layer 1" xmlns="http://www.w3.org/2000/svg" width="16" height="16" viewBox="0 0 16 16"><path d="M8.23,16,8,13.56a6.6,6.6,0,0,1-4.82-2,6.5,6.5,0,0,1-2-4.8A6.5,6.5,0,0,1,3.19,2,6.57,6.57,0,0,1,8,0a6.65,6.65,0,0,1,2.64.52A7,7,0,0,1,12.8,2a6.77,6.77,0,0,1,1.46,2.15,6.51,6.51,0,0,1,.54,2.65,8.56,8.56,0,0,1-.5,2.91,10.32,10.32,0,0,1-1.37,2.58,11.37,11.37,0,0,1-2.08,2.14A13,13,0,0,1,8.23,16ZM10,12.91a10.33,10.33,0,0,0,2.25-2.76,6.79,6.79,0,0,0,.88-3.38A4.86,4.86,0,0,0,11.6,3.18,5,5,0,0,0,8,1.72,4.9,4.9,0,0,0,4.4,3.2,4.86,4.86,0,0,0,2.92,6.79,4.85,4.85,0,0,0,4.4,10.37,4.93,4.93,0,0,0,8,11.84H10ZM8,11.15a.85.85,0,0,0,.62-.26.84.84,0,0,0,.26-.62.88.88,0,1,0-.88.88ZM7.35,8.59H8.61a1.83,1.83,0,0,1,.15-.81,4.54,4.54,0,0,1,.73-.87,2.87,2.87,0,0,0,.6-.81,2,2,0,0,0,.2-.87A1.77,1.77,0,0,0,9.6,3.7,2.64,2.64,0,0,0,8,3.21a2.23,2.23,0,0,0-1.49.51,2.67,2.67,0,0,0-.84,1.21l1.18.45a1.89,1.89,0,0,1,.37-.65A.93.93,0,0,1,8,4.39a1,1,0,0,1,.74.27A.85.85,0,0,1,9,5.27a1,1,0,0,1-.14.55,2.67,2.67,0,0,1-.51.56,3.8,3.8,0,0,0-.84,1A3.53,3.53,0,0,0,7.35,8.59Z" style="fill:#e0e0e0"/></svg>