<svg id="a07613d8-a96f-4fff-9a55-e858b51cec5a" data-name="Layer 1" xmlns="http://www.w3.org/2000/svg" width="16" height="16" viewBox="0 0 16 16"><path d="M16,6.14a.69.69,0,0,0-.66-.54H13.56a6.12,6.12,0,0,0-.72-1.27h0l.88-1.56a.8.8,0,0,0,.09-.3h0a.71.71,0,0,0-.33-.53l-3-1.75A.67.67,0,0,0,9.6.34L8.72,2A5.78,5.78,0,0,0,7.28,2L6.4.34A.66.66,0,0,0,5.49.09h0l-3,1.75a.71.71,0,0,0-.33.53h0a.8.8,0,0,0,.09.3l.88,1.56h0A6.12,6.12,0,0,0,2.4,5.5H.67A.69.69,0,0,0,0,6.14V9.72a.68.68,0,0,0,.67.68H2.44c.1.22.21.44.33.65a6.49,6.49,0,0,0,.39.62l-.88,1.56a.68.68,0,0,0,.24.93l3,1.75a.67.67,0,0,0,.92-.24h0l.88-1.57a5.78,5.78,0,0,0,1.44,0l.88,1.57a.66.66,0,0,0,.91.25h0l3-1.75a.68.68,0,0,0,.24-.93l-.88-1.56a6.12,6.12,0,0,0,.72-1.27h1.77A.68.68,0,0,0,16,9.72V6.14Zm-2.84,3h-1.5a3.84,3.84,0,0,1-7.4,0H2.78A1.12,1.12,0,0,1,1.68,8V8a1.12,1.12,0,0,1,1.1-1.12H4.26a3.84,3.84,0,0,1,7.4,0h1.5A1.12,1.12,0,0,1,14.26,8h0V8A1.12,1.12,0,0,1,13.16,9.1Z" style="fill:#e0e0e0"/><path d="M10.33,8a2.53,2.53,0,0,1-.27,1.07,2.39,2.39,0,0,1-.42.58,2.36,2.36,0,0,1-3.34,0h0a2.39,2.39,0,0,1-.42-.58A2.49,2.49,0,0,1,5.6,8a2.42,2.42,0,0,1,.69-1.76l.57.58L8,8,9.1,6.85l.56-.56A2.48,2.48,0,0,1,10.33,8Z" style="fill:#e0e0e0"/></svg>