<svg id="bee5b61e-1f45-43f7-8fdb-9a8e4597acc1" data-name="Layer 1" xmlns="http://www.w3.org/2000/svg" width="16" height="16" viewBox="0 0 16 16"><path d="M2.28,2.76l.88,1.56,0,0L2.28,2.81a.73.73,0,0,1-.09-.35A.8.8,0,0,0,2.28,2.76Z" style="fill:#e0e0e0"/><path d="M15.33,5.58H13.56a6.29,6.29,0,0,0-.7-1.24l0,0a6,6,0,0,1,.72,1.26h1.77a.69.69,0,0,1,.66.54A.67.67,0,0,0,15.33,5.58ZM13.81,2.41a.67.67,0,0,0-.33-.58l-3-1.74A.67.67,0,0,0,9.6.34L8.72,1.9a5.78,5.78,0,0,0-1.44,0L6.4.34A.67.67,0,0,0,5.48.09l-3,1.74a.67.67,0,0,0-.33.58.71.71,0,0,1,.33-.53l3-1.74A.67.67,0,0,1,6.4.39L7.28,2A5.78,5.78,0,0,1,8.72,2L9.6.39a.67.67,0,0,1,.92-.25l3,1.74A.71.71,0,0,1,13.81,2.41ZM2.44,5.58H.67A.67.67,0,0,0,0,6.17a.69.69,0,0,1,.66-.54H2.44a6,6,0,0,1,.72-1.26l0,0A6.29,6.29,0,0,0,2.44,5.58Z" style="fill:#e0e0e0"/><path d="M16,6.17a.69.69,0,0,0-.66-.54H13.56a6,6,0,0,0-.72-1.26l0,0,0,0,.88-1.56a.8.8,0,0,0,.09-.3v0a.71.71,0,0,0-.33-.53l-3-1.74A.67.67,0,0,0,9.6.39L8.72,2A5.78,5.78,0,0,0,7.28,2L6.4.39A.67.67,0,0,0,5.48.14l-3,1.74a.71.71,0,0,0-.33.53v0a.8.8,0,0,0,.09.3l.88,1.56,0,0,0,0a6,6,0,0,0-.72,1.26H.67A.69.69,0,0,0,0,6.17a.66.66,0,0,0,0,.14V9.74a.68.68,0,0,0,.67.68H2.44c.1.22.21.44.33.65a6.33,6.33,0,0,0,.39.61l-.88,1.56a.68.68,0,0,0,.24.93l3,1.74a.67.67,0,0,0,.92-.25l.88-1.56a5.78,5.78,0,0,0,1.44,0l.88,1.56a.67.67,0,0,0,.92.25l3-1.74a.68.68,0,0,0,.24-.93l-.88-1.56a6,6,0,0,0,.72-1.26h1.77A.68.68,0,0,0,16,9.74V6.31A.66.66,0,0,0,16,6.17ZM13.16,9.12h-1.5a3.84,3.84,0,0,1-7.4,0H2.78a1.11,1.11,0,0,1-1.1-1.07V8a1.11,1.11,0,0,1,1.1-1.12H4.26a3.84,3.84,0,0,1,7.4,0h1.5A1.11,1.11,0,0,1,14.26,8v.05A1.11,1.11,0,0,1,13.16,9.12Z" style="fill:#e0e0e0"/><path d="M13.81,2.46a.73.73,0,0,1-.09.35l-.86,1.53,0,0,.88-1.56A.8.8,0,0,0,13.81,2.46Z" style="fill:#e0e0e0"/><path d="M10.33,8.05a2.57,2.57,0,0,1-.27,1.07,2.59,2.59,0,0,1-.42.58,2.36,2.36,0,0,1-3.35,0,2.59,2.59,0,0,1-.42-.58A2.49,2.49,0,0,1,5.6,8.05a2.42,2.42,0,0,1,.27-1.17,2.59,2.59,0,0,1,.42-.58l.57.58L8,8,9.1,6.88l.56-.56a2.42,2.42,0,0,1,.67,1.73Z" style="fill:#e0e0e0"/></svg>