<?xml version="1.0" encoding="UTF-8" standalone="no"?>
<!-- Created with Inkscape (http://www.inkscape.org/) -->

<svg
   width="16"
   height="16"
   viewBox="0 0 16 16"
   version="1.1"
   id="svg1"
   xml:space="preserve"
   xmlns="http://www.w3.org/2000/svg"
   xmlns:svg="http://www.w3.org/2000/svg"><defs
     id="defs1" /><g
     id="layer1"
     style="display:inline"
     transform="translate(-67.3125,-17.67767)"><path
       id="path46"
       style="display:inline;fill:#e0e0e0;stroke-width:1.78571"
       d="m 74.419922,19.427734 -0.501953,2.011719 -0.615235,0.255859 -1.777343,-1.068359 -1.263672,1.263672 1.064453,1.775391 -0.248047,0.613281 -2.015625,0.505859 v 1.785156 l 2.011719,0.501954 0.255859,0.611328 -1.068359,1.78125 1.263672,1.263672 1.77539,-1.06836 0.613281,0.248047 0.50586,2.019531 h 1.785156 l 0.292969,-1.18164 A 1.1864812,1.1864812 0 0 1 74.9375,30.439453 l -1.210938,-1.884765 a 1.1864812,1.1864812 0 0 1 0.115235,-1.361329 2.125,2.125 0 0 1 -0.654297,-1.515625 2.125,2.125 0 0 1 2.125,-2.125 2.125,2.125 0 0 1 1.449219,0.570313 c 0.328631,-0.124194 0.680042,-0.192432 1.037109,-0.205078 0.270367,-0.0096 0.542137,0.01272 0.8125,0.06836 0.720966,0.148372 1.416776,0.529261 1.951172,1.154297 0.385371,0.450734 0.650449,0.954004 0.810547,1.476563 l 0.189453,-0.04688 v -1.785156 l -2.011719,-0.505859 -0.257812,-0.611328 1.070312,-1.777344 -1.263672,-1.263672 -1.77539,1.064453 -0.617188,-0.248047 -0.501953,-2.015625 z m 3.53125,5.654297 a 2.4189301,2.8292025 0 0 0 -0.574219,0.0918 2.125,2.125 0 0 1 0.06055,0.503906 2.125,2.125 0 0 1 -0.05859,0.486328 1.61262,1.8861349 0 0 1 2.058594,1.173829 l 0.109375,-0.265625 0.666016,-0.166016 a 2.4189301,2.8292025 0 0 0 -2.261719,-1.824219 z m -1.492188,2.369141 a 2.125,2.125 0 0 1 -0.916015,0.326172 2.4189301,2.8292025 0 0 0 -0.0098,0.134765 h -0.806641 l 1.208985,1.886719 1.208984,-1.886719 H 76.33981 a 1.61262,1.8861349 0 0 1 0.11914,-0.460937 z m 3.035157,0.566406 a 1.61262,1.8861349 0 0 1 -1.542969,1.78125 v 0.238281 l 0.861328,0.517579 a 2.4189301,2.8292025 0 0 0 1.330078,-1.457032 z" /><path
       d="m 77.951614,25.082907 a 2.4189301,2.8292025 0 0 0 -2.419067,2.829196 h -0.806355 l 1.209534,1.886132 1.209533,-1.886132 h -0.806355 a 1.61262,1.8861349 0 1 1 1.612711,1.886132 V 30.7413 a 2.4189301,2.8292025 0 1 0 -10e-7,-5.658393 z"
       style="fill:#e0e0e0;stroke-width:1.18636;stroke-linejoin:round;paint-order:stroke fill markers"
       id="path52" /></g></svg>
