<svg id="fd29da9b-de86-407a-b1c0-82bcaece0f90" data-name="Layer 1" xmlns="http://www.w3.org/2000/svg" width="16" height="16" viewBox="0 0 16 16"><path d="M14.15,3.19v9.63a.45.45,0,0,1-.45.45H12.32a.44.44,0,0,0-.45.44v.62a.44.44,0,0,0,.45.44h3.23a.44.44,0,0,0,.45-.44V1.67a.44.44,0,0,0-.45-.44H12.32a.44.44,0,0,0-.45.44V2.3a.45.45,0,0,0,.45.45H13.7A.44.44,0,0,1,14.15,3.19Z" style="fill:#e0e0e0;fill-rule:evenodd"/><path d="M2.3,2.75H3.68a.45.45,0,0,0,.45-.45V1.67a.44.44,0,0,0-.45-.44H.45A.44.44,0,0,0,0,1.67V14.33a.44.44,0,0,0,.45.44H3.68a.44.44,0,0,0,.45-.44v-.62a.44.44,0,0,0-.45-.44H2.3a.45.45,0,0,1-.45-.45V3.19A.44.44,0,0,1,2.3,2.75Z" style="fill:#e0e0e0;fill-rule:evenodd"/><path d="M7.41,14a1,1,0,0,1-1-.81l-.18-1.09a3.55,3.55,0,0,1-.63-.28A4.45,4.45,0,0,1,5,11.45L4,11.9a1,1,0,0,1-1.27-.4l-.57-.95A.94.94,0,0,1,2.41,9.3l1-.68a1.71,1.71,0,0,1,0-.32V7.69a1.71,1.71,0,0,1,0-.32l-1-.68a.92.92,0,0,1-.24-1.25l.53-1A1,1,0,0,1,4,4.09L5,4.54a4.45,4.45,0,0,1,.58-.38,3.56,3.56,0,0,1,.62-.23l.18-1.1a1,1,0,0,1,1-.81H8.59a1,1,0,0,1,1,.81l.18,1.1a4,4,0,0,1,.64.27,2.87,2.87,0,0,1,.57.39L12,4.14a1,1,0,0,1,1.27.35l.57,1a.93.93,0,0,1-.29,1.25l-1,.65a1.82,1.82,0,0,1,0,.33v.64a1.71,1.71,0,0,1,0,.32l1,.67a.94.94,0,0,1,.28,1.25l-.57.95a1,1,0,0,1-1.28.4L11,11.45a5.72,5.72,0,0,1-.57.39,2.42,2.42,0,0,1-.64.27L9.57,13.2a1,1,0,0,1-1,.82ZM8,10A2,2,0,0,0,10,8V8A2,2,0,0,0,8,6H8a2,2,0,0,0-1.44.57,1.9,1.9,0,0,0,0,2.77A2,2,0,0,0,8,10Z" style="fill:#e0e0e0"/></svg>