<svg id="fa550852-e862-44f0-9a49-9cbf629eaebc" data-name="Layer 1" xmlns="http://www.w3.org/2000/svg" width="16" height="16" viewBox="0 0 16 16"><path d="M14.15,3.19v9.63a.45.45,0,0,1-.45.45H12.32a.44.44,0,0,0-.45.43h0v.62a.44.44,0,0,0,.44.44h3.24a.44.44,0,0,0,.45-.43h0V1.67a.44.44,0,0,0-.44-.44H12.32a.44.44,0,0,0-.45.43h0V2.3a.45.45,0,0,0,.45.45H13.7a.44.44,0,0,1,.45.43Z" style="fill:#e0e0e0;fill-rule:evenodd"/><path d="M2.3,2.75H3.68a.45.45,0,0,0,.45-.45h0V1.67a.44.44,0,0,0-.44-.44H.45A.44.44,0,0,0,0,1.66H0V14.33a.44.44,0,0,0,.44.44H3.68a.44.44,0,0,0,.45-.43h0v-.62a.44.44,0,0,0-.44-.44H2.3a.45.45,0,0,1-.45-.45V3.19a.44.44,0,0,1,.44-.44Z" style="fill:#e0e0e0;fill-rule:evenodd"/><path d="M7.41,14a1,1,0,0,1-1-.81L6.23,12.1a3.55,3.55,0,0,1-.63-.28,4.6,4.6,0,0,1-.6-.37L4,11.9a1,1,0,0,1-1.27-.4l-.57-.95A.93.93,0,0,1,2.41,9.3l1-.68a1.71,1.71,0,0,1,0-.32V7.69a1.71,1.71,0,0,1,0-.32l-1-.68a.92.92,0,0,1-.24-1.25l.53-1A1,1,0,0,1,4,4.09l1,.45a4.45,4.45,0,0,1,.58-.38,3.56,3.56,0,0,1,.62-.23l.18-1.1a1,1,0,0,1,1-.81H8.59a1,1,0,0,1,1,.81l.18,1.1a4,4,0,0,1,.64.27,2.87,2.87,0,0,1,.57.39l1-.45a1,1,0,0,1,1.27.35l.57,1a.94.94,0,0,1-.29,1.25l-1,.65a1.82,1.82,0,0,1,0,.33v.64a1.71,1.71,0,0,1,0,.32l1,.67a.94.94,0,0,1,.28,1.25l-.57,1A1,1,0,0,1,12,12l-1-.5a5.72,5.72,0,0,1-.57.39,2.42,2.42,0,0,1-.64.27L9.57,13.2a1,1,0,0,1-1,.82ZM8,10a2,2,0,0,0,2-2h0A2,2,0,0,0,8,6H8a2,2,0,0,0-1.44.57,1.91,1.91,0,0,0-.08,2.69l.08.08A2,2,0,0,0,8,10Z" style="fill:#e0e0e0"/></svg>