<svg id="a52eeb9f-ce2f-4730-9b8d-cf8405c3c5ed" data-name="Layer 1" xmlns="http://www.w3.org/2000/svg" width="16" height="16" viewBox="0 0 16 16"><path d="M7.41,14a1,1,0,0,1-1-.81l-.18-1.09a3.91,3.91,0,0,1-.63-.28,4.6,4.6,0,0,1-.6-.37l-1,.45a1,1,0,0,1-1.27-.4l-.57-1a1,1,0,0,1,.25-1.25l1-.68a1.71,1.71,0,0,1,0-.32V7.67a1.71,1.71,0,0,1,0-.32l-1-.68a.93.93,0,0,1-.24-1.25l.53-1A1,1,0,0,1,4,4.07l1,.45a5.25,5.25,0,0,1,.58-.38,3.56,3.56,0,0,1,.62-.23l.18-1.1a1,1,0,0,1,1-.81H8.59a1,1,0,0,1,1,.81l.18,1.1a3.61,3.61,0,0,1,.64.27,2.87,2.87,0,0,1,.57.39l1-.45a1,1,0,0,1,1.27.35l.57,1a.92.92,0,0,1-.29,1.25l-1,.65a1.82,1.82,0,0,1,0,.33v.64a1.71,1.71,0,0,1,0,.32l1,.67a.94.94,0,0,1,.28,1.25l-.57.95a1,1,0,0,1-1.28.4l-1-.5a5.72,5.72,0,0,1-.57.39,2.42,2.42,0,0,1-.64.27l-.22,1.09a1,1,0,0,1-1,.82ZM8,10a2,2,0,0,0,2-2h0A2,2,0,0,0,8,6H8a2,2,0,0,0-1.44.57,1.91,1.91,0,0,0-.08,2.69.3.3,0,0,1,.08.08A2,2,0,0,0,8,10Z" style="fill:#e0e0e0"/></svg>